<svg xmlns="http://www.w3.org/2000/svg" viewBox="0 0 71.79 10.7"><defs><style>.cls-1{fill:#fff;}</style></defs><g id="Layer_2" data-name="Layer 2"><g id="Layer_1-2" data-name="Layer 1"><path class="cls-1" d="M0,2.39l.66-.77,1.77-.15.77.66.17,2.05-1.15.09L2.09,2.7l-.25-.22-.43,0-.22.26.53,6.67L2,9.67l.43,0,.22-.26L2.51,7.82l1.14-.09.17,2-.66.78-1.77.14L.62,10Z"/><path class="cls-1" d="M5.39,8l0,2.36-1.15.09L4.56,1.3l1.65-.13,1.84,9-1.19.1L6.44,7.94Zm.08-5.6L5.39,7,6.28,7Z"/><path class="cls-1" d="M9.25,1.89,9.91,10l-1.15.09L8.1,2,7,2.07l-.08-1L10.26.84l.08,1Z"/><path class="cls-1" d="M12.88,5.64l.11.09a5.67,5.67,0,0,1-.23-1.07l-.42,0-.25-.22-.21-2.55.22-.26.42,0,.26.22.07,1A5.38,5.38,0,0,1,13.59,1L13.11.61,11.35.75l-.66.78L11,5.07l.77.66Z"/><path class="cls-1" d="M13.16,6.21l.19,2.32-.22.26-.48,0-.25-.22-.12-1.42-1.15.09.16,1.9.77.66,1.82-.14.66-.78-.08-1A4.7,4.7,0,0,1,13.16,6.21Z"/><path class="cls-1" d="M15.19,4.09a3.67,3.67,0,0,0,.19,1.37,3,3,0,0,0,.6,1,2.58,2.58,0,0,0,.87.64,2.68,2.68,0,0,0,1,.24,2.2,2.2,0,0,0,.78-.13,2.57,2.57,0,0,0,.69-.37A3.83,3.83,0,0,0,20,6.3c.19-.21.37-.43.55-.66l.79.62a4.83,4.83,0,0,1-.66.8,4.6,4.6,0,0,1-.85.66,4.27,4.27,0,0,1-1,.45,3.7,3.7,0,0,1-1.16.15A5.66,5.66,0,0,1,15.73,8a4.5,4.5,0,0,1-1.47-.88,4,4,0,0,1-.94-1.34A4,4,0,0,1,13,4a4.26,4.26,0,0,1,.38-1.66,4,4,0,0,1,1-1.29A4.35,4.35,0,0,1,15.86.26,5.38,5.38,0,0,1,17.74,0,4.81,4.81,0,0,1,19,.2a4.76,4.76,0,0,1,1,.47,4.21,4.21,0,0,1,.81.71,4.71,4.71,0,0,1,.62.89l-.83.55a6.28,6.28,0,0,0-.53-.69,3.68,3.68,0,0,0-.62-.57,2.65,2.65,0,0,0-.69-.4A2.2,2.2,0,0,0,18,1,2.7,2.7,0,0,0,17,1.18a2.33,2.33,0,0,0-.88.58,2.91,2.91,0,0,0-.63,1A3.79,3.79,0,0,0,15.19,4.09Z"/><path class="cls-1" d="M27.08.3l3.49,8.21-2,0-.93-2.2-3.09-.09L23.45,8.31l-1.32,0,4.11-8ZM25,5.45l2.39.06-1.1-2.6Z"/><path class="cls-1" d="M37.83.78l0,.67-2.75-.07-.21,7.26-1.94-.06.21-7.26-2.76-.08,0-.68Z"/><path class="cls-1" d="M42.92,7.68a.81.81,0,0,1-.28.27,1.75,1.75,0,0,1-.44.16,2,2,0,0,1-.49,0A1.79,1.79,0,0,1,41.06,8a1.66,1.66,0,0,1-.49-.32,1.87,1.87,0,0,1-.33-.45,2.7,2.7,0,0,1-.18-.57l-1.36,0a3,3,0,0,0,.28.91,2.19,2.19,0,0,0,.58.71,2.59,2.59,0,0,0,.9.49A4.13,4.13,0,0,0,41.7,9a4.69,4.69,0,0,0,1.35-.13l.13-.05c0-.1,0-.21-.08-.31A6.79,6.79,0,0,1,42.92,7.68Z"/><path class="cls-1" d="M43.25,4.72c-.16-.1-.32-.2-.49-.29L42,4a6.15,6.15,0,0,1-.68-.44,1.93,1.93,0,0,1-.49-.5,1,1,0,0,1-.17-.57,1.17,1.17,0,0,1,.08-.37A.88.88,0,0,1,41,1.78a1.35,1.35,0,0,1,.43-.25A2,2,0,0,1,42,1.45a2.07,2.07,0,0,1,.7.14,1.66,1.66,0,0,1,.49.32,1.92,1.92,0,0,1,.33.46,4.53,4.53,0,0,1,.23.55l.72,0a4.08,4.08,0,0,1,.39-.31,3.11,3.11,0,0,0-.25-.52,2.69,2.69,0,0,0-.6-.7,3.07,3.07,0,0,0-.85-.48A3.58,3.58,0,0,0,42.1.73a4.82,4.82,0,0,0-1.3.13,3,3,0,0,0-1,.44,2,2,0,0,0-.62.68,1.71,1.71,0,0,0-.23.87,1.48,1.48,0,0,0,.16.77,2,2,0,0,0,.46.62,3.81,3.81,0,0,0,.66.5c.25.16.51.3.77.44l.77.41a4.85,4.85,0,0,1,.67.44,2.3,2.3,0,0,1,.4.43A5.42,5.42,0,0,1,43.25,4.72Z"/><path class="cls-1" d="M47.58,10.55A4.79,4.79,0,0,1,46,10.4a3.36,3.36,0,0,1-1.28-.68,3.49,3.49,0,0,1-.89-1.2,4.71,4.71,0,0,1-.4-1.67,4.18,4.18,0,0,1,.19-1.74,3.43,3.43,0,0,1,.75-1.27A3.5,3.5,0,0,1,45.48,3a4.56,4.56,0,0,1,1.41-.35,4.38,4.38,0,0,1,1.37.09,3.53,3.53,0,0,1,1.1.45,2.49,2.49,0,0,1,.75.73,2.11,2.11,0,0,1,.32.95,1.79,1.79,0,0,1-.08.72,1.27,1.27,0,0,1-.34.5,1.56,1.56,0,0,1-.55.32,3.17,3.17,0,0,1-.72.14,2.05,2.05,0,0,1-.49,0,3.09,3.09,0,0,1-.46-.13,2,2,0,0,1-.36-.19.61.61,0,0,1-.2-.19c0-.1,0-.22,0-.35s0-.27,0-.4h-.08a.17.17,0,0,0-.14.06.31.31,0,0,0-.06.18,1.2,1.2,0,0,0,0,.34c0,.15,0,.33,0,.55s0,.56.08.77.06.38.09.51a.83.83,0,0,0,.11.29c0,.06.08.09.13.09l.1,0,0-.53a2.65,2.65,0,0,1,.48-.29A5,5,0,0,1,48.5,7a5.2,5.2,0,0,1,.68-.17,5.88,5.88,0,0,1,.68-.1,1.85,1.85,0,0,1,.32.39,4.39,4.39,0,0,1,.27.53c.08.19.14.38.2.57a2.82,2.82,0,0,1,.1.54,2,2,0,0,1-.34.51,3.08,3.08,0,0,1-.65.57,4.34,4.34,0,0,1-.94.48A4.61,4.61,0,0,1,47.58,10.55Z"/><path class="cls-1" d="M51.77,3a3,3,0,0,1,.5-.3,3.49,3.49,0,0,1,.59-.25,5.56,5.56,0,0,1,.65-.18,5.06,5.06,0,0,1,.68-.09,4.61,4.61,0,0,1,.91,0,3.06,3.06,0,0,1,.83.2,2,2,0,0,1,.67.4,1.37,1.37,0,0,1,.4.64l1.75,5.41a2,2,0,0,1-.71.62,2.86,2.86,0,0,1-1.21.31,2.56,2.56,0,0,1-.62,0,1.9,1.9,0,0,1-.51-.13,1.21,1.21,0,0,1-.39-.26A.92.92,0,0,1,55.1,9l-.19-.71a1.44,1.44,0,0,0,.36-.07,2.39,2.39,0,0,0,.32-.11A1.39,1.39,0,0,0,55.81,8a.19.19,0,0,0,.08-.15.17.17,0,0,0-.09-.14,1,1,0,0,1-.23.15L55.28,8,55,8a1.51,1.51,0,0,1-.28.05h-.45A1.7,1.7,0,0,1,53.89,8a1.34,1.34,0,0,1-.26-.08l-.18-.09a.16.16,0,0,0,0,.07.19.19,0,0,0,0,.08.22.22,0,0,0,.1.16,1.07,1.07,0,0,0,.26.11,1.7,1.7,0,0,0,.35.06l.42,0c0,.27.08.48.12.64a1,1,0,0,0,.11.3.62.62,0,0,1-.19.23,1.48,1.48,0,0,1-.37.24,3,3,0,0,1-.51.21,3.07,3.07,0,0,1-.63.11,3,3,0,0,1-.79,0,2.13,2.13,0,0,1-.66-.21,1.33,1.33,0,0,1-.47-.37.88.88,0,0,1-.2-.51.56.56,0,0,1,0-.13.61.61,0,0,1,0-.14Zm3,2.8-.15-.55A1.61,1.61,0,0,0,54.5,5a.33.33,0,0,0-.09-.14.14.14,0,0,0-.11,0h-.08l-.06,0L54.47,6l.07,0h.08l.1,0,.07,0Z"/><path class="cls-1" d="M63.1,8.77a2.43,2.43,0,0,1-.66.43,2.79,2.79,0,0,1-1,.25,2.73,2.73,0,0,1-.64,0,1.55,1.55,0,0,1-.55-.18,1.16,1.16,0,0,1-.4-.33.94.94,0,0,1-.17-.51l-.29-3.76L58,4.75a2.32,2.32,0,0,1-.37-.61,2.43,2.43,0,0,1-.15-.67,2.62,2.62,0,0,1,0-.49,2.15,2.15,0,0,1,.09-.4,3.26,3.26,0,0,1,.15-.32A1.54,1.54,0,0,1,57.9,2l6-.46a2.32,2.32,0,0,1,.33.61,2.74,2.74,0,0,1,.17.74,2,2,0,0,1,0,.62,1.07,1.07,0,0,1-.2.43.88.88,0,0,1-.34.26,1.24,1.24,0,0,1-.44.11l-1.71.13a.14.14,0,0,0,0,.09.1.1,0,0,0,0,.08.15.15,0,0,0,.1.05l.2,0,.35,0,.4,0Z"/><path class="cls-1" d="M66.38,5.68a2.41,2.41,0,0,1,.54,0,1.46,1.46,0,0,1,.89.49,1.84,1.84,0,0,1,.31.52c.12,0,.18-.11.17-.22a.67.67,0,0,0-.12-.33,1.2,1.2,0,0,0-.34-.38,2,2,0,0,0-.58-.29,2.56,2.56,0,0,0-.86-.07,2.65,2.65,0,0,0-.48.08l-.33.13a1.58,1.58,0,0,1-.39-.24,2.6,2.6,0,0,1-.3-.36,1.78,1.78,0,0,1-.21-.44,2.11,2.11,0,0,1-.1-.5,2.34,2.34,0,0,1,.22-1.26,2.6,2.6,0,0,1,.74-.9,3.63,3.63,0,0,1,1.09-.56,5.31,5.31,0,0,1,1.25-.24,6,6,0,0,1,1,0,5,5,0,0,1,.84.12,4.52,4.52,0,0,1,.65.21,3.51,3.51,0,0,1,.48.25,2.34,2.34,0,0,1,.13.4,2.32,2.32,0,0,1,.07.46,1.93,1.93,0,0,1,0,.34c0,.11,0,.23,0,.34a3,3,0,0,1-.11.32,1,1,0,0,1-.18.26,1.29,1.29,0,0,0-.28-.12A3.83,3.83,0,0,0,70,3.58a3.42,3.42,0,0,0-.51-.08,3.25,3.25,0,0,0-.54,0,1.79,1.79,0,0,0-.5.09c-.1,0-.14.11-.13.18a.3.3,0,0,0,0,.1,1,1,0,0,1,.25-.06l.27,0a4.17,4.17,0,0,1,1,.06,2.51,2.51,0,0,1,.9.34,2.21,2.21,0,0,1,.67.72A2.56,2.56,0,0,1,71.78,6a2.29,2.29,0,0,1-.15,1A2.5,2.5,0,0,1,71,8a3.6,3.6,0,0,1-1.08.67A5.57,5.57,0,0,1,68.4,9l-.84,0a6.06,6.06,0,0,1-.76,0,5.42,5.42,0,0,1-.7-.14,4.49,4.49,0,0,1-.67-.24A3.41,3.41,0,0,1,65.07,8a2,2,0,0,1-.18-.71A1.51,1.51,0,0,1,65,6.7a1.32,1.32,0,0,1,.29-.5,1.44,1.44,0,0,1,.48-.36A1.63,1.63,0,0,1,66.38,5.68Z"/></g></g></svg>